# File created by Blade
# Date/Time:  Tue Sep 30 19:36:36 2014
#---------------------------------------------------------
:version 1.10
:name HOM
:units
  mass 1.0
  length 1.000000
  angle deg
:documentation
     Acclaim Skeleton File
:root
   axis xyz
   order TX TY TZ RX RY RZ
   position 0.000000 0.000000 0.000000
   orientation 0 0 0
:bonedata
   begin
      id 1
      name Spine_dum
      direction 0.000000 1.000000 0.000000
      length 3.241213
      axis 0.0 0.0 0.0 xyz
   end
   begin
      id 2
      name LeftUpLeg_dum
      direction 1.000000 0.000000 0.000000
      length 3.434019
      axis 0.0 0.0 0.0 xyz
   end
   begin
      id 3
      name RightUpLeg_dum
      direction -1.000000 0.000000 0.000000
      length 3.434019
      axis 0.0 0.0 0.0 xyz
   end
   begin
      id 4
      name Spine
      direction 0.000000 1.000000 0.000000
      length 0.000000
      axis 0.0 0.0 0.0 xyz
      dof rx ry rz
   end
   begin
      id 5
      name Spine_dum1
      direction 0.000000 1.000000 0.000000
      length 18.382958
      axis 0.0 0.0 0.0 xyz
   end
   begin
      id 6
      name Spine_dum2
      direction 0.000000 1.000000 0.000000
      length 12.828261
      axis 0.0 0.0 0.0 xyz
   end
   begin
      id 7
      name Spine_dum3
      direction 0.000000 1.000000 0.000000
      length 12.828261
      axis 0.0 0.0 0.0 xyz
   end
   begin
      id 8
      name Head
      direction 0.000000 1.000000 0.000000
      length 4.527550
      axis 0.0 0.0 0.0 xyz
      dof rx ry rz
   end
   begin
      id 9
      name LeftShoulder
      direction 1.000000 0.000000 0.000000
      length 7.748055
      axis 0.0 0.0 -90.0 xyz
      dof rx ry rz
   end
   begin
      id 10
      name LeftArm
      direction 1.000000 0.000000 0.000000
      length 10.635614
      axis 0.0 0.0 -90.0 xyz
      dof rx ry rz
   end
   begin
      id 11
      name LeftForeArm
      direction 1.000000 0.000000 0.000000
      length 8.346755
      axis 0.0 0.0 -90.0 xyz
      dof ry rz rx
   end
   begin
      id 12
      name LeftHand
      direction 0.000000 0.000000 0.000000
      length 0.000000
      axis 0.0 0.0 -90.0 xyz
      dof rx ry rz
   end
   begin
      id 13
      name LeftHand_dum1
      direction 0.000000 0.000000 0.000000
      length 0.000000
      axis 0.0 0.0 -90.0 xyz
   end
   begin
      id 14
      name LeftHand_dum2
      direction 1.000000 0.000000 0.000000
      length 3.937000
      axis 0.0 0.0 -90.0 xyz
   end
   begin
      id 15
      name LeftHandThumb1
      direction 0.000000 0.000000 1.000000
      length 3.937000
      axis 0.0 0.0 -90.0 xyz
      dof rx rz ry
   end
   begin
      id 16
      name RightShoulder
      direction -1.000000 0.000000 0.000000
      length 7.748055
      axis 0.0 0.0 90.0 xyz
      dof rx ry rz
   end
   begin
      id 17
      name RightArm
      direction -1.000000 0.000000 0.000000
      length 10.635614
      axis 0.0 0.0 90.0 xyz
      dof rx ry rz
   end
   begin
      id 18
      name RightForeArm
      direction -1.000000 0.000000 0.000000
      length 8.346755
      axis 0.0 0.0 90.0 xyz
      dof ry rz rx
   end
   begin
      id 19
      name RightHand
      direction 0.000000 0.000000 0.000000
      length 0.000000
      axis 0.0 0.0 90.0 xyz
      dof rx ry rz
   end
   begin
      id 20
      name RightHand_dum1
      direction 0.000000 0.000000 0.000000
      length 0.000000
      axis 0.0 0.0 90.0 xyz
   end
   begin
      id 21
      name RightHand_dum2
      direction -1.000000 0.000000 0.000000
      length 3.937000
      axis 0.0 0.0 90.0 xyz
   end
   begin
      id 22
      name RightHandThumb1
      direction 0.000000 0.000000 1.000000
      length 3.937000
      axis 0.0 0.0 90.0 xyz
      dof rx rz ry
   end
   begin
      id 23
      name LeftUpLeg
      direction 0.000000 -1.000000 0.000000
      length 15.713025
      axis 0.0 0.0 0.0 xyz
      dof rx ry rz
   end
   begin
      id 24
      name LeftLeg
      direction 0.000000 -1.000000 0.000000
      length 14.435119
      axis 0.0 0.0 0.0 xyz
      dof rx ry rz
   end
   begin
      id 25
      name LeftFoot
      direction 0.000000 -0.258819 0.965926
      length 4.938895
      axis 15.0 0.0 0.0 xyz
      dof rx ry rz
   end
   begin
      id 26
      name LeftToeBase
      direction 0.000000 0.000000 1.000000
      length 2.952750
      axis 0.0 0.0 0.0 xyz
      dof rx ry rz
   end
   begin
      id 27
      name RightUpLeg
      direction 0.000000 -1.000000 0.000000
      length 15.713025
      axis 0.0 0.0 0.0 xyz
      dof rx ry rz
   end
   begin
      id 28
      name RightLeg
      direction 0.000000 -1.000000 0.000000
      length 14.435119
      axis 0.0 0.0 0.0 xyz
      dof rx ry rz
   end
   begin
      id 29
      name RightFoot
      direction 0.000000 -0.258819 0.965926
      length 4.938895
      axis 15.0 0.0 0.0 xyz
      dof rx ry rz
   end
   begin
      id 30
      name RightToeBase
      direction 0.000000 0.000000 1.000000
      length 2.952750
      axis 0.0 0.0 0.0 xyz
      dof rx ry rz
   end
:hierarchy
   begin
      root Spine_dum LeftUpLeg_dum RightUpLeg_dum
      Spine_dum Spine
      LeftUpLeg_dum LeftUpLeg
      RightUpLeg_dum RightUpLeg
      Spine Spine_dum1 Spine_dum2 Spine_dum3
      Spine_dum1 Head
      Spine_dum2 LeftShoulder
      Spine_dum3 RightShoulder
      LeftShoulder LeftArm
      LeftArm LeftForeArm
      LeftForeArm LeftHand
      LeftHand LeftHand_dum1 LeftHand_dum2
      LeftHand_dum1 LeftHandThumb1
      RightShoulder RightArm
      RightArm RightForeArm
      RightForeArm RightHand
      RightHand RightHand_dum1 RightHand_dum2
      RightHand_dum1 RightHandThumb1
      LeftUpLeg LeftLeg
      LeftLeg LeftFoot
      LeftFoot LeftToeBase
      RightUpLeg RightLeg
      RightLeg RightFoot
      RightFoot RightToeBase
   end

# File created by Blade
# Date/Time:  Tue Sep 23 19:22:32 2014
# Frame Rate: 120.000 fps
#------------------------------------------------------
:FULLY-SPECIFIED
:DEGREES
871
root 1.310010 35.186359 -0.738159 107.092774 3.815575 -50.048288
Spine -64.473413 0.392426 32.673891
Head -2.742622 23.445076 47.995941
LeftShoulder -13.168313 37.598286 40.334463
LeftArm 62.515998 -68.124278 -83.478348
LeftForeArm 65.339427 -0.000000 90.636404
LeftHand 9.584121 0.000000 37.707226
LeftHandThumb1 -26.253704 0.000000 33.147579
RightShoulder -41.811461 -42.983484 7.005480
RightArm 41.434877 55.155068 81.004311
RightForeArm 99.782256 -0.000000 3.208122
RightHand 6.300442 -0.000000 25.107148
RightHandThumb1 -24.326973 -0.000000 -32.862282
LeftUpLeg -114.043670 47.376886 -18.325020
LeftLeg -7.130054 -0.000000 0.000000
LeftFoot -1.109020 -10.519450 -7.655122
LeftToeBase 5.483934 -0.000000 -0.000000
RightUpLeg -5.818568 -10.312900 -42.424025
RightLeg 80.688410 -0.000000 -0.000000
RightFoot 49.479726 24.585900 2.250627
RightToeBase 28.356507 -0.000000 -0.000000
872
root 1.291726 35.204186 -0.709947 107.057589 3.730735 -50.457555
Spine -64.391160 0.426141 32.694123
Head -2.569491 23.505266 48.289312
LeftShoulder -13.157267 37.668742 40.390582
LeftArm 62.741187 -68.206459 -83.709216
LeftForeArm 65.639316 0.000000 90.616746
LeftHand 9.487502 0.000000 37.798008
LeftHandThumb1 -26.253704 0.000000 33.147579
RightShoulder -41.901907 -42.855846 7.239306
RightArm 40.907902 54.632717 80.486678
RightForeArm 100.547561 -0.000000 3.447494
RightHand 6.276249 -0.000000 25.299486
RightHandThumb1 -24.326973 -0.000000 -32.862282
LeftUpLeg -113.989897 47.818629 -18.323522
LeftLeg -6.994712 -0.000000 0.000000
LeftFoot -1.016047 -10.284749 -6.617507
LeftToeBase 6.479225 -0.000000 -0.000000
RightUpLeg -6.162459 -10.789480 -42.572799
RightLeg 81.116432 -0.000000 -0.000000
RightFoot 49.529353 24.658273 2.233247
RightToeBase 28.545912 -0.000000 -0.000000
873
root 1.271199 35.221232 -0.681552 106.981839 3.668704 -50.894014
Spine -64.260079 0.471705 32.712177
Head -2.410587 23.525880 48.568375
LeftShoulder -13.114255 37.722640 40.465995
LeftArm 62.533788 -68.297974 -83.507521
LeftForeArm 65.541627 -0.000000 90.681381
LeftHand 9.470291 0.000000 37.669737
LeftHandThumb1 -26.253704 0.000000 33.147579
RightShoulder -41.948842 -42.795292 7.457216
RightArm 40.812734 54.466614 80.539198
RightForeArm 100.962039 -0.000000 3.633620
RightHand 6.236554 -0.000000 25.185338
RightHandThumb1 -24.326973 -0.000000 -32.862282
LeftUpLeg -113.852524 48.349714 -18.183525
LeftLeg -6.826351 -0.000000 0.000000
LeftFoot -0.827920 -10.097352 -5.544408
LeftToeBase 8.003950 -0.000000 -0.000000
RightUpLeg -6.494631 -11.145585 -42.676988
RightLeg 81.535386 -0.000000 -0.000000
RightFoot 49.486683 24.783062 2.256956
RightToeBase 28.542440 -0.000000 -0.000000
874
root 1.244338 35.232934 -0.655882 106.728374 3.606594 -51.283730
Spine -63.992151 0.386612 32.752399
Head -2.258006 23.615113 48.826360
LeftShoulder -13.097846 37.754593 40.510530
LeftArm 62.455031 -68.335289 -83.370907
LeftForeArm 65.565282 -0.000000 90.639891
LeftHand 9.361501 -0.000000 37.928471
LeftHandThumb1 -26.253704 0.000000 33.147579
RightShoulder -42.071746 -42.844415 7.780946
RightArm 41.313182 54.587475 81.220932
RightForeArm 100.910654 -0.000000 3.798366
RightHand 6.012274 -0.000000 25.269387
RightHandThumb1 -24.326973 -0.000000 -32.862282
LeftUpLeg -113.405640 48.919474 -17.773347
LeftLeg -6.645397 -0.000000 0.000000
LeftFoot -0.694354 -9.939802 -4.679717
LeftToeBase 10.023246 -0.000000 -0.000000
RightUpLeg -6.615678 -11.449150 -42.832361
RightLeg 81.905989 -0.000000 -0.000000
RightFoot 49.477210 24.930619 2.248418
RightToeBase 28.470002 -0.000000 -0.000000
875
root 1.217436 35.244986 -0.626939 106.587178 3.528945 -51.626614
Spine -63.854365 0.319307 32.821321
Head -2.076982 23.730932 49.025969
LeftShoulder -13.122179 37.730182 40.514250
LeftArm 62.184743 -68.368656 -83.016642
LeftForeArm 65.345744 -0.000000 90.637766
LeftHand 9.545018 -0.000000 37.727179
LeftHandThumb1 -26.253704 0.000000 33.147579
RightShoulder -42.142106 -42.849467 7.961247
RightArm 41.546056 54.443574 81.592288
RightForeArm 101.155234 -0.000000 3.857632
RightHand 6.291296 -0.000000 25.422585
RightHandThumb1 -24.326973 -0.000000 -32.862282
LeftUpLeg -113.061926 49.415948 -17.453721
LeftLeg -6.456479 -0.000000 0.000000
LeftFoot -0.765439 -9.721813 -4.116039
LeftToeBase 10.579531 -0.000000 -0.000000
RightUpLeg -6.783267 -11.821975 -42.950181
RightLeg 82.259597 -0.000000 -0.000000
RightFoot 49.503779 25.044686 2.258172
RightToeBase 28.611945 -0.000000 -0.000000
876
root 1.194568 35.258015 -0.594712 106.496317 3.460655 -51.976954
Spine -63.760198 0.306238 32.889354
Head -1.864321 23.819048 49.216883
LeftShoulder -13.079269 37.732359 40.517409
LeftArm 61.954260 -68.426640 -82.705964
LeftForeArm 65.126593 0.000000 90.643714
LeftHand 9.592524 -0.000000 37.753601
LeftHandThumb1 -26.253704 0.000000 33.147579
RightShoulder -42.169566 -42.843671 8.131031
RightArm 41.654169 54.376919 81.862517
RightForeArm 101.321578 -0.000000 4.016553
RightHand 6.230934 -0.000000 25.387119
RightHandThumb1 -24.326973 -0.000000 -32.862282
LeftUpLeg -112.851551 49.873605 -17.256539
LeftLeg -6.265154 -0.000000 0.000000
LeftFoot -0.807908 -9.373207 -3.679893
LeftToeBase 10.578777 -0.000000 -0.000000
RightUpLeg -7.013589 -12.189775 -43.031658
RightLeg 82.615140 -0.000000 -0.000000
RightFoot 49.490165 25.099326 2.260578
RightToeBase 28.596913 -0.000000 -0.000000
877
root 1.178567 35.272133 -0.567213 106.397977 3.336860 -52.411977
Spine -63.583701 0.343413 32.870451
Head -1.739802 23.908217 49.352314
LeftShoulder -13.083674 37.707375 40.507753
LeftArm 61.820514 -68.463076 -82.506024
LeftForeArm 65.017820 0.000000 90.669086
LeftHand 9.692472 -0.000000 37.706292
LeftHandThumb1 -26.253704 0.000000 33.147579
RightShoulder -42.275584 -42.833375 8.375429
RightArm 41.956332 54.312821 82.307774
RightForeArm 101.467646 -0.000000 4.189576
RightHand 6.111234 0.000000 25.487127
RightHandThumb1 -24.326973 -0.000000 -32.862282
LeftUpLeg -112.735281 50.368917 -17.266244
LeftLeg -6.103227 -0.000000 0.000000
LeftFoot -0.850150 -9.158741 -3.315562
LeftToeBase 10.333713 -0.000000 -0.000000
RightUpLeg -7.324466 -12.495945 -43.207533
RightLeg 83.016145 -0.000000 -0.000000
RightFoot 49.534876 25.182663 2.272548
RightToeBase 28.721396 -0.000000 -0.000000
878
root 1.166050 35.289471 -0.536252 106.413641 3.198600 -52.794145
Spine -63.545032 0.394929 32.853630
Head -1.578942 24.029672 49.528651
LeftShoulder -13.074758 37.717290 40.523393
LeftArm 61.587578 -68.462412 -82.239248
LeftForeArm 64.993361 -0.000000 90.731876
LeftHand 9.691211 -0.000000 37.720619
LeftHandThumb1 -26.253704 0.000000 33.147579
RightShoulder -42.333259 -42.837311 8.583840
RightArm 42.200725 54.252384 82.723369
RightForeArm 101.463777 -0.000000 4.389191
RightHand 6.222327 -0.000000 25.603424
RightHandThumb1 -24.326973 -0.000000 -32.862282
LeftUpLeg -112.780115 50.769183 -17.425688
LeftLeg -5.909594 -0.000000 0.000000
LeftFoot -0.976468 -8.986128 -3.130200
LeftToeBase 10.181156 -0.000000 -0.000000
RightUpLeg -7.691518 -12.846527 -43.350853
RightLeg 83.402590 -0.000000 -0.000000
RightFoot 49.583708 25.241887 2.384715
RightToeBase 28.614339 -0.000000 -0.000000
879
root 1.156297 35.306850 -0.506152 106.374764 3.070841 -53.151591
Spine -63.444817 0.391651 32.863579
Head -1.445485 24.141972 49.696131
LeftShoulder -13.120862 37.692627 40.508403
LeftArm 61.419201 -68.421582 -82.039019
LeftForeArm 65.107938 -0.000000 90.852822
LeftHand 9.659794 0.000000 37.655989
LeftHandThumb1 -26.253704 0.000000 33.147579
RightShoulder -42.342991 -42.763295 8.762067
RightArm 42.318463 54.130510 82.928062
RightForeArm 101.681854 -0.000000 4.539392
RightHand 6.204824 0.000000 25.508809
RightHandThumb1 -24.326973 -0.000000 -32.862282
LeftUpLeg -112.911439 51.106440 -17.712901
LeftLeg -5.711740 -0.000000 0.000000
LeftFoot -1.014028 -8.961553 -2.840426
LeftToeBase 9.739101 -0.000000 -0.000000
RightUpLeg -8.002182 -13.185337 -43.503156
RightLeg 83.779178 -0.000000 -0.000000
RightFoot 49.633998 25.331237 2.426714
RightToeBase 28.456839 -0.000000 -0.000000
